<?xml version="1.0" standalone="no"?>
<!DOCTYPE svg PUBLIC "-//W3C//DTD SVG 20010904//EN"
 "http://www.w3.org/TR/2001/REC-SVG-20010904/DTD/svg10.dtd">
<svg version="1.0" xmlns="http://www.w3.org/2000/svg"
 width="891.000000pt" height="319.000000pt" viewBox="0 0 891.000000 319.000000"
 preserveAspectRatio="xMidYMid meet">

<g transform="translate(0.000000,319.000000) scale(0.100000,-0.100000)"
fill="#000000" stroke="none">
<path d="M2230 1808 c1 -1348 0 -1339 55 -1451 33 -67 73 -107 141 -141 90
-45 164 -57 382 -63 l202 -6 0 136 0 135 -192 4 c-207 3 -234 9 -270 58 -10
14 -22 49 -28 79 -6 34 -10 495 -10 1272 l0 1219 -140 0 -140 0 0 -1242z"/>
<path d="M1065 2196 c-351 -55 -653 -297 -783 -626 -59 -151 -67 -198 -66
-405 0 -178 2 -196 27 -279 74 -238 208 -434 396 -577 94 -71 267 -154 384
-184 450 -114 867 66 1042 449 19 43 35 81 35 87 0 5 -43 9 -98 9 l-98 0 -29
-67 c-38 -88 -153 -207 -237 -247 -109 -51 -169 -61 -348 -60 -194 1 -271 17
-415 88 -164 81 -288 205 -369 370 -68 137 -90 239 -90 416 0 212 41 363 139
510 93 140 259 256 432 301 162 42 391 36 543 -16 154 -52 278 -154 335 -273
l29 -62 98 0 c54 0 98 3 98 8 0 4 -21 45 -46 91 -84 158 -195 271 -359 364
-180 103 -391 138 -620 103z"/>
<path d="M3755 2199 c-224 -30 -440 -134 -590 -284 -355 -353 -403 -958 -112
-1390 158 -234 443 -389 784 -426 121 -13 283 -7 384 15 279 60 545 287 648
554 l21 52 -189 0 -188 0 -19 -42 c-30 -67 -118 -149 -204 -191 -123 -61 -223
-81 -365 -74 -145 7 -212 25 -330 85 -120 62 -226 165 -278 272 -39 79 -67
174 -67 225 l0 30 840 -3 c807 -3 840 -3 841 15 3 112 -5 282 -16 347 -84 481
-464 806 -960 821 -71 2 -161 0 -200 -6z m320 -314 c256 -54 438 -254 470
-517 l6 -58 -650 0 -651 0 0 33 c0 99 67 242 157 338 102 108 216 173 358 204
81 18 225 18 310 0z"/>
<path d="M5905 2204 c-216 -31 -384 -99 -530 -214 -262 -209 -404 -571 -367
-939 60 -606 544 -1017 1121 -953 166 19 286 62 406 147 126 89 176 165 220
335 37 141 37 142 78 128 17 -6 34 -12 35 -14 2 -1 -19 -69 -47 -151 -47 -136
-51 -159 -57 -271 l-7 -122 211 0 212 0 0 1000 0 1000 -212 0 -211 0 7 -107
c7 -122 18 -167 70 -306 20 -54 36 -101 36 -106 0 -8 -52 -31 -70 -31 -4 0
-22 53 -40 118 -37 134 -58 183 -100 234 -75 91 -248 191 -395 228 -78 20
-290 34 -360 24z m367 -417 c98 -31 163 -73 232 -148 66 -70 109 -155 137
-268 18 -71 21 -105 17 -215 -4 -114 -8 -142 -35 -219 -94 -267 -292 -429
-543 -444 -190 -12 -340 44 -470 176 -122 124 -177 256 -187 457 -18 342 150
593 449 674 105 29 291 23 400 -13z"/>
<path d="M8525 2199 c-189 -15 -323 -53 -455 -130 -140 -81 -195 -150 -280
-352 -28 -67 -55 -125 -59 -130 -8 -8 -81 19 -81 30 0 4 27 75 59 158 59 149
81 236 81 328 l0 47 -245 0 -245 0 0 -1000 0 -1000 245 0 245 0 0 475 c0 395
3 489 16 553 69 336 386 540 887 569 l107 6 0 229 0 228 -87 -1 c-49 -1 -133
-5 -188 -10z"/>
</g>
</svg>
